# xmcd
#
# Track frame offsets:
#	150
#	27367
#	54470
#	64710
#	77195
#	87087
#	98295
#	106970
#	119147
#	129045
#	143032
#	150877
#	161407
#	182552
#	193935
#	203967
#	215210
#	234745
#	247352
#	261760
#	272025
#	282757
#	298442
#	307747
#
# Disc length: 4298 seconds
#
# Revision: 1
# Processed by: cddbd v1.5.2PL0 Copyright (c) Steve Scherf et al.
# Submitted via: audiograbber 1.83.01
#
DISCID=5e10c818
DTITLE=Jimmy Dean - Jimmy Dean 24 greats
DYEAR=1900
DGENRE=Country
TTITLE0=I.O.U
TTITLE1=Sleeping Beauty
TTITLE2=A Thing Called Love
TTITLE3=Rose Is A Rose
TTITLE4=She Burned The Little Roadside Tavern Down
TTITLE5=Ruben James
TTITLE6=Honey
TTITLE7=Jean
TTITLE8=Okie From Muskogee
TTITLE9=A Week In A Country Jail
TTITLE10=I Didn't Have the Time
TTITLE11=I'll Be A Hero
TTITLE12=This Old House
TTITLE13=Skip A Rope
TTITLE14=When Its Sleepy Time Down South
TTITLE15=Born To Be By Your Side
TTITLE16=Let Me Sing My Song
TTITLE17=Frilly Shirt
TTITLE18=WAKING UP TO LOVE 
TTITLE19=THAT NEW OLD FASHIONED LOVE
TTITLE20=READ 'EM and WEEP
TTITLE21=ME and  RED and BILL
TTITLE22=IT'LL BE EASY
TTITLE23=ALL I HAVE TO OFFER  YOU IS ME 
EXTD=
EXTT0=
EXTT1=
EXTT2=
EXTT3=
EXTT4=
EXTT5=
EXTT6=
EXTT7=
EXTT8=
EXTT9=
EXTT10=
EXTT11=
EXTT12=
EXTT13=
EXTT14=
EXTT15=
EXTT16=
EXTT17=
EXTT18=
EXTT19=
EXTT20=
EXTT21=
EXTT22=
EXTT23=
PLAYORDER=
